<?xml version="1.0" standalone="no"?>
<!DOCTYPE svg PUBLIC "-//W3C//DTD SVG 20010904//EN"
 "http://www.w3.org/TR/2001/REC-SVG-20010904/DTD/svg10.dtd">
<svg version="1.0" xmlns="http://www.w3.org/2000/svg"
 width="875.000000pt" height="875.000000pt" viewBox="0 0 875.000000 875.000000"
 preserveAspectRatio="xMidYMid meet">
<metadata>
Created by potrace 1.11, written by Peter Selinger 2001-2013
</metadata>
<g transform="translate(0.000000,875.000000) scale(0.100000,-0.100000)"
fill="#000000" stroke="none">
<path d="M2150 8713 c-14 -2 -74 -10 -134 -19 -481 -67 -990 -335 -1371 -720
-346 -350 -578 -867 -632 -1411 -15 -148 -6 -643 12 -672 1 -3 6 -35 9 -71 4
-36 9 -74 11 -85 3 -11 7 -31 9 -45 2 -14 12 -59 21 -100 9 -41 19 -88 21
-105 6 -34 90 -324 104 -358 5 -12 23 -60 40 -107 80 -219 244 -568 296 -629
21 -25 33 -31 64 -31 44 0 32 -13 290 305 80 99 179 220 220 271 41 50 107
131 147 180 118 146 658 810 761 936 111 135 152 160 227 135 63 -21 90 -62
270 -412 54 -104 101 -194 105 -200 4 -5 35 -64 70 -130 35 -66 77 -147 95
-180 55 -102 121 -227 150 -283 32 -62 57 -82 102 -82 68 0 68 2 123 375 11
77 25 165 30 195 5 30 12 75 15 100 3 25 8 56 10 70 2 14 14 88 25 165 12 77
23 151 25 165 6 37 35 221 40 250 2 14 7 48 11 75 3 28 8 59 10 69 2 11 8 55
14 98 15 110 18 128 25 173 17 116 25 174 30 215 3 25 8 56 10 70 3 14 7 41
10 60 18 110 37 208 47 233 32 81 190 79 249 -3 9 -14 20 -50 23 -80 3 -30 10
-86 15 -125 6 -38 13 -87 16 -107 3 -21 7 -55 10 -75 3 -21 12 -81 20 -133 7
-52 16 -117 20 -145 3 -27 8 -57 10 -65 2 -8 6 -37 10 -65 3 -27 12 -93 20
-145 8 -52 16 -115 20 -140 3 -25 8 -56 10 -70 2 -14 7 -44 10 -67 7 -54 14
-99 20 -143 3 -19 7 -48 9 -65 11 -78 17 -122 21 -145 2 -14 7 -45 10 -70 3
-25 8 -56 10 -70 3 -14 7 -45 10 -70 3 -25 7 -52 10 -60 2 -8 7 -44 10 -80 4
-35 8 -67 10 -70 1 -3 6 -27 9 -55 7 -50 40 -288 50 -357 4 -21 8 -54 11 -73
3 -19 7 -51 10 -70 3 -19 8 -52 11 -72 3 -21 7 -49 9 -63 1 -14 5 -43 9 -65 4
-22 8 -53 10 -70 5 -37 16 -113 21 -140 2 -11 4 -32 4 -46 1 -40 31 -70 74
-76 55 -7 91 32 101 112 4 33 9 67 11 75 9 41 16 80 25 135 5 33 12 71 15 85
2 13 7 42 10 65 3 22 8 47 10 55 6 20 13 65 20 125 28 234 54 286 149 304 32
6 758 10 1994 9 1802 0 1944 1 1962 17 10 9 28 44 40 78 12 34 26 71 30 82 31
73 110 393 126 512 3 26 8 57 10 68 19 99 26 465 11 605 -38 362 -144 675
-340 1005 -36 62 -147 221 -184 265 -290 346 -523 541 -823 689 -238 118 -446
177 -715 206 -57 6 -302 6 -355 0 -25 -3 -65 -7 -91 -9 -213 -21 -571 -120
-814 -226 -22 -9 -56 -23 -75 -31 -172 -69 -580 -296 -893 -496 l-68 -43 -61
42 c-33 24 -70 50 -82 58 -11 8 -77 55 -146 105 -298 216 -419 292 -655 411
-268 135 -540 221 -845 270 -41 6 -404 12 -440 7z m325 -167 c378 -21 864
-210 1308 -508 50 -34 135 -93 187 -132 52 -39 157 -114 234 -168 162 -115
173 -117 263 -60 451 283 783 464 1053 575 303 124 681 209 935 210 109 0 272
-9 297 -18 7 -2 30 -6 50 -9 59 -9 115 -23 218 -54 625 -192 1164 -721 1419
-1394 42 -111 97 -298 107 -363 3 -22 9 -58 14 -80 34 -159 32 -457 -6 -715
-26 -177 -125 -542 -152 -559 -9 -5 -3363 -5 -3632 1 -115 2 -224 -8 -288 -27
-117 -35 -189 -156 -217 -365 -10 -75 -22 -116 -28 -100 -4 12 -19 116 -43
300 -1 14 -5 39 -8 55 -3 17 -8 53 -12 80 -3 28 -8 59 -10 69 -2 11 -8 56 -14
100 -14 104 -20 145 -26 176 -2 14 -6 45 -9 70 -3 25 -8 56 -10 70 -3 14 -7
43 -10 65 -3 22 -10 69 -15 105 -5 36 -12 81 -14 100 -4 29 -19 134 -41 280
-2 14 -6 43 -10 65 -3 22 -8 55 -10 73 -5 36 -14 103 -20 142 -2 14 -9 61 -15
106 -6 44 -12 90 -14 101 -3 11 -7 44 -11 74 -3 30 -8 61 -10 69 -2 8 -7 55
-10 105 -4 49 -8 92 -10 95 -1 3 -6 27 -9 53 -30 226 -195 345 -409 297 -31
-7 -62 -19 -68 -27 -6 -7 -16 -13 -22 -13 -18 0 -78 -69 -97 -113 -19 -43 -21
-52 -40 -172 -6 -38 -13 -81 -15 -95 -2 -14 -7 -45 -10 -70 -3 -25 -8 -52 -10
-60 -2 -8 -7 -37 -10 -65 -3 -27 -7 -61 -10 -75 -3 -14 -21 -131 -40 -260 -20
-129 -40 -260 -45 -290 -5 -30 -12 -75 -15 -100 -3 -25 -10 -70 -15 -100 -6
-30 -12 -75 -15 -100 -3 -25 -12 -83 -20 -130 -7 -47 -16 -105 -19 -130 -4
-25 -11 -72 -16 -105 -6 -33 -15 -89 -20 -125 -16 -109 -22 -145 -25 -148 -1
-2 -33 55 -70 125 -76 143 -120 225 -175 328 -21 39 -58 108 -82 155 -196 373
-191 364 -245 418 -18 18 -56 44 -85 57 -44 20 -65 24 -133 22 -67 -2 -89 -7
-133 -32 -65 -35 -64 -34 -312 -340 -67 -82 -137 -168 -155 -190 -18 -22 -149
-182 -290 -355 -141 -173 -348 -428 -461 -566 -113 -138 -211 -259 -218 -269
-11 -15 -19 -4 -68 96 -31 63 -68 143 -82 179 -15 36 -33 79 -41 95 -70 158
-167 479 -206 680 -21 108 -45 284 -54 385 -7 84 -7 371 0 440 38 367 108 618
251 905 95 190 198 331 360 497 220 225 456 382 789 523 70 30 304 99 370 109
81 12 122 19 140 22 11 3 70 7 130 10 61 4 111 7 113 9 1 1 17 1 35 -1 17 -2
68 -5 112 -8z"/>
<path d="M2134 5721 c-12 -3 -131 -141 -265 -306 -133 -165 -245 -302 -249
-305 -3 -3 -41 -50 -86 -105 -44 -55 -103 -127 -130 -161 -43 -53 -349 -429
-545 -669 -76 -93 -89 -115 -89 -147 0 -22 128 -211 222 -330 213 -268 403
-496 528 -633 124 -136 150 -164 192 -210 26 -27 59 -63 74 -80 15 -16 75 -82
134 -145 59 -63 119 -128 135 -145 15 -16 77 -84 138 -150 132 -141 208 -223
337 -365 52 -57 120 -131 151 -164 31 -34 145 -160 254 -281 109 -121 233
-258 275 -305 42 -47 99 -110 126 -140 121 -137 190 -214 199 -224 23 -24 429
-490 554 -636 73 -85 144 -160 158 -166 46 -20 71 -5 156 95 46 53 165 193
266 311 101 118 189 220 195 225 6 6 40 44 76 85 35 41 67 77 70 80 3 3 20 23
39 45 19 22 70 80 115 129 45 49 86 94 91 100 129 143 194 215 210 232 11 11
57 61 101 110 45 49 95 103 110 120 16 17 74 80 129 139 55 60 111 121 125
135 14 15 73 78 131 141 157 167 174 186 257 274 144 153 208 221 342 365 74
80 142 152 150 160 48 49 432 458 457 487 15 17 176 192 233 253 134 142 357
415 483 590 158 219 338 511 356 578 10 35 -12 80 -45 92 -36 14 -3529 13
-3554 0 -25 -13 -38 -39 -46 -87 -3 -21 -21 -128 -41 -238 -19 -110 -36 -209
-38 -220 -3 -22 -7 -45 -36 -205 -10 -58 -21 -123 -24 -145 -4 -22 -8 -47 -10
-55 -3 -8 -7 -33 -10 -55 -8 -49 -12 -74 -25 -145 -6 -30 -12 -68 -15 -85 -3
-16 -8 -46 -11 -65 -4 -19 -8 -45 -9 -57 -2 -11 -5 -29 -9 -40 -3 -10 -8 -38
-11 -63 -3 -25 -8 -52 -10 -60 -2 -8 -7 -33 -10 -55 -3 -22 -25 -150 -49 -284
-43 -243 -43 -245 -76 -272 -61 -52 -149 -47 -204 10 -22 23 -30 47 -46 132
-10 57 -21 129 -25 159 -3 30 -8 62 -10 70 -2 8 -7 40 -10 70 -4 30 -9 69 -11
85 -2 17 -6 53 -9 80 -7 57 -11 82 -20 143 -4 23 -8 52 -10 65 -4 35 -19 141
-20 147 -1 3 -5 32 -9 65 -4 33 -11 83 -16 110 -5 28 -12 70 -15 95 -11 92
-39 284 -50 358 -4 23 -8 52 -9 65 -2 12 -6 40 -9 62 -4 22 -9 60 -12 85 -3
25 -8 56 -10 70 -2 14 -7 45 -10 70 -3 25 -12 88 -20 140 -19 125 -24 160 -36
250 -6 41 -12 86 -14 100 -2 14 -7 45 -10 70 -3 25 -10 70 -15 100 -5 30 -12
79 -15 109 -4 30 -9 63 -11 75 -2 12 -7 41 -10 66 -15 116 -25 135 -79 151
-23 6 -65 -9 -81 -31 -11 -13 -23 -76 -39 -195 -3 -22 -8 -51 -10 -65 -3 -14
-7 -41 -10 -60 -3 -19 -8 -46 -10 -60 -3 -14 -7 -45 -10 -70 -6 -45 -12 -84
-20 -130 -2 -14 -7 -45 -10 -70 -3 -25 -12 -83 -20 -130 -7 -47 -16 -106 -20
-131 -6 -49 -13 -89 -20 -129 -3 -14 -7 -42 -10 -62 -21 -160 -45 -301 -56
-335 -21 -65 -146 -93 -215 -49 -30 21 -76 88 -105 156 -24 56 -72 151 -139
275 -67 125 -195 367 -265 500 -37 72 -82 157 -100 190 -33 62 -91 170 -171
323 -26 48 -54 94 -63 103 -19 20 -58 29 -87 20z m54 -303 c42 -78 91 -168
166 -310 76 -144 137 -259 174 -328 81 -151 112 -210 154 -290 205 -388 210
-397 242 -431 59 -62 163 -100 256 -95 98 6 206 71 245 147 22 41 43 130 50
207 4 37 8 78 10 92 6 42 17 114 21 135 2 11 7 40 10 65 5 43 39 258 48 310 3
14 5 39 6 55 1 44 16 12 23 -50 3 -27 13 -99 21 -160 9 -60 19 -126 22 -145 2
-19 6 -46 9 -60 2 -14 6 -47 10 -75 3 -27 10 -77 15 -110 5 -33 12 -76 14 -95
3 -19 14 -98 25 -175 11 -77 23 -160 26 -185 3 -25 8 -52 10 -60 2 -8 6 -37
10 -65 3 -27 8 -61 10 -75 2 -14 9 -61 15 -105 15 -103 19 -134 25 -165 2 -14
7 -50 10 -80 3 -30 8 -62 10 -70 2 -8 7 -40 10 -70 4 -30 8 -57 10 -60 1 -3 6
-36 10 -75 4 -38 8 -72 10 -75 2 -3 6 -32 9 -65 4 -33 9 -67 11 -75 3 -8 7
-35 9 -61 18 -172 51 -247 133 -299 57 -37 111 -52 179 -53 151 -2 267 84 310
228 15 52 23 96 49 285 3 25 18 110 32 190 14 80 27 159 29 175 4 26 31 178
64 365 5 30 16 93 24 140 9 47 18 99 21 115 11 62 15 84 44 255 51 295 72 414
75 417 1 2 735 2 1630 1 l1627 -3 -79 -125 c-161 -257 -322 -472 -561 -750
-51 -59 -78 -89 -150 -169 -120 -132 -367 -397 -566 -607 -16 -17 -75 -80
-130 -139 -55 -59 -120 -129 -145 -155 -144 -151 -322 -339 -340 -360 -11 -13
-55 -60 -98 -104 -42 -45 -121 -129 -174 -186 -53 -58 -118 -128 -145 -156
-26 -28 -93 -100 -148 -160 -55 -59 -107 -115 -115 -124 -16 -17 -181 -198
-241 -265 -20 -22 -49 -53 -64 -70 -15 -16 -55 -61 -89 -99 -33 -38 -65 -74
-71 -80 -5 -6 -44 -49 -85 -96 -41 -47 -89 -101 -106 -120 -28 -31 -112 -128
-228 -261 -47 -55 -98 -114 -211 -247 -71 -84 -90 -101 -100 -90 -7 7 -88 101
-181 208 -92 107 -173 200 -178 206 -6 6 -22 24 -35 40 -23 27 -225 256 -246
280 -13 14 -118 132 -145 164 -12 14 -36 41 -53 60 -18 19 -70 78 -117 130
-47 52 -87 97 -90 100 -3 3 -25 28 -50 55 -51 57 -207 230 -230 255 -8 9 -60
65 -115 125 -55 61 -105 115 -111 121 -5 6 -41 46 -80 89 -38 42 -85 94 -104
114 -33 35 -201 218 -245 267 -131 144 -193 212 -210 230 -11 11 -56 61 -100
110 -74 83 -107 119 -181 200 -16 17 -45 49 -64 70 -19 22 -76 84 -125 139
-50 55 -133 150 -185 210 -52 61 -99 115 -105 121 -5 7 -17 20 -25 30 -8 11
-42 53 -76 94 -74 91 -244 319 -250 334 -2 6 53 81 123 167 71 86 181 221 245
300 64 79 212 261 329 404 116 143 272 335 347 428 74 92 136 167 138 167 1 0
20 -33 42 -72z"/>
</g>
</svg>
